<svg width='200' height='200' fill="#ffffff" version="1.1" xmlns="http://www.w3.org/2000/svg" xmlns:xlink="http://www.w3.org/1999/xlink" x="0px" y="0px" viewBox="0 14.361 100 71.276" enable-background="new 0 14.361 100 71.276" xml:space="preserve"><path d="M99.812,36.257c-1.088-3.943-6.603-5.946-16.39-5.946c-1.176,0-2.399,0.032-3.673,0.093
	C73.368,20.748,62.416,14.361,50,14.361c-5.582,0-10.867,1.293-15.573,3.589c0.002,0,0.002,0.002,0.004,0.002
	c-1.976-1.148-4.261-1.809-6.705-1.809c-7.37,0-13.364,5.996-13.364,13.365c0,2.835,0.892,5.466,2.403,7.633
	c-1.37,3.529-2.195,7.328-2.368,11.292c-0.556,0.296-1.098,0.596-1.628,0.895c-9.508,5.37-13.74,10.22-12.583,14.414
	c1.088,3.942,6.603,5.946,16.392,5.946c1.176,0,2.403-0.031,3.673-0.091c6.384,9.653,17.335,16.04,29.749,16.04
	c19.125,0,34.776-15.144,35.601-34.069c0.558-0.297,1.099-0.598,1.629-0.896C96.737,45.303,100.972,40.453,99.812,36.257z
	 M34.854,18.215L34.854,18.215L34.854,18.215z M36.886,19.792c-0.022-0.022-0.046-0.044-0.068-0.066
	C36.84,19.748,36.863,19.772,36.886,19.792z M36.508,19.449c-0.028-0.025-0.063-0.054-0.094-0.08
	C36.445,19.395,36.48,19.42,36.508,19.449z M36.082,19.09c-0.008-0.006-0.02-0.013-0.022-0.019
	C36.066,19.078,36.077,19.084,36.082,19.09z M27.726,19.708c5.407,0,9.8,4.396,9.8,9.802c0,5.403-4.393,9.799-9.8,9.799
	c-5.405,0-9.8-4.396-9.8-9.799C17.926,24.104,22.321,19.708,27.726,19.708z M18.038,38.704c-0.004-0.006-0.008-0.012-0.015-0.016
	C18.033,38.691,18.037,38.697,18.038,38.704z M14.466,52.72c0.161,2.147,0.52,4.241,1.048,6.266c-4.61-0.231-5.891-1.228-5.97-1.522
	C9.445,57.108,10.183,55.463,14.466,52.72z M55.951,81.519c-1.93,0.363-3.919,0.557-5.951,0.557
	c-10.441,0-19.731-5.015-25.591-12.764c8.709-0.771,19.004-2.704,29.379-5.569c2.689-0.738,5.324-1.528,7.899-2.354
	C60.668,68.671,58.69,75.471,55.951,81.519z M62.134,57.501c-3.006,0.989-6.113,1.934-9.289,2.807
	c-13.403,3.697-26.619,5.818-36.265,5.818c-8.886,0-12.534-1.795-12.957-3.331c-0.252-0.915,0.403-2.439,2.474-4.44
	c0.004,0.021,0.008,0.04,0.013,0.061c0.779,2.818,4.522,4.187,11.451,4.187c8.625,0,21.14-2.087,34.335-5.724
	c3.617-1,7.136-2.072,10.494-3.198C62.335,54.962,62.247,56.236,62.134,57.501z M50.948,53.437
	c-11.881,3.277-23.561,5.321-31.732,5.573c-0.839-2.86-1.292-5.883-1.292-9.009c0-3.477,0.559-6.825,1.586-9.961
	c-0.002,0-0.002-0.002-0.004-0.002c2.27,1.773,5.122,2.835,8.219,2.835c7.372,0,13.364-5.995,13.364-13.363
	c0-3.498-1.352-6.679-3.554-9.064c3.836-1.623,8.046-2.519,12.462-2.519c2.034,0,4.023,0.193,5.953,0.557
	c4.111,9.08,6.505,19.847,6.52,31.402C58.812,51.138,54.942,52.335,50.948,53.437z M84.217,40.034
	c-0.6-2.054-1.381-4.032-2.322-5.916c5.179,0.161,6.58,1.245,6.665,1.549C88.653,36.006,87.99,37.518,84.217,40.034z"></path></svg>